<svg width="19" height="22" viewBox="0 0 19 22" fill="none" xmlns="http://www.w3.org/2000/svg">
<path d="M10 14.002V21.75H2.58457e-07C-0.000310114 20.5289 0.278921 19.3239 0.816299 18.2274C1.35368 17.1309 2.13494 16.1719 3.10022 15.424C4.0655 14.6761 5.18918 14.1591 6.38515 13.9126C7.58113 13.6662 8.81766 13.6967 10 14.002V14.002ZM8 12.75C4.685 12.75 2 10.065 2 6.75C2 3.435 4.685 0.75 8 0.75C11.315 0.75 14 3.435 14 6.75C14 10.065 11.315 12.75 8 12.75ZM15 16.336L17.121 14.214L18.536 15.629L16.414 17.75L18.536 19.871L17.121 21.286L15 19.164L12.879 21.286L11.464 19.871L13.586 17.75L11.464 15.629L12.879 14.214L15 16.336Z" fill="#191919"/>
</svg>
