<svg width="36" height="37" viewBox="0 0 36 37" fill="none" xmlns="http://www.w3.org/2000/svg">
    <path d="M29.0372 9.24396C28.8168 9.1257 28.6021 8.99608 28.3942 8.85557C27.7898 8.44118 27.2357 7.95294 26.7437 7.40138C25.5113 5.93966 25.0511 4.45687 24.8827 3.41967H24.8885C24.7477 2.55709 24.8058 2.00011 24.8159 2.00011H19.2055V24.4949C19.2055 24.796 19.2055 25.0955 19.1939 25.3906C19.1939 25.4267 19.1895 25.4598 19.1881 25.5005C19.1881 25.5155 19.1881 25.5336 19.1837 25.5501V25.5637C19.1248 26.3706 18.8755 27.1501 18.4579 27.8337C18.0402 28.5172 17.467 29.0838 16.7885 29.4837C16.0808 29.9012 15.2803 30.1202 14.466 30.1189C11.8531 30.1189 9.73373 27.9091 9.73373 25.1798C9.73373 22.4491 11.8531 20.2392 14.466 20.2392C14.961 20.2392 15.4531 20.3205 15.9234 20.4801L15.9306 14.5549C14.5023 14.3638 13.0512 14.4818 11.6691 14.9016C10.2869 15.3213 9.00367 16.0337 7.90035 16.9936C6.93337 17.8645 6.12037 18.9038 5.49794 20.0646C5.26133 20.4876 4.36714 22.1902 4.25972 24.951C4.19149 26.5166 4.64584 28.1424 4.86213 28.8123V28.8273C4.99713 29.2217 5.52552 30.5706 6.38487 31.7071C7.07786 32.6194 7.89665 33.4208 8.81486 34.0856V34.0705L8.82793 34.0856C11.5424 35.9974 14.5545 35.8725 14.5545 35.8725C15.0757 35.8499 16.8219 35.8725 18.8048 34.8985C21.004 33.8176 22.2553 32.2084 22.2553 32.2084C23.0553 31.2467 23.6915 30.1506 24.1366 28.9673C24.6447 27.5824 24.813 25.9235 24.813 25.2611V13.325C24.8813 13.3672 25.7885 13.9889 25.7885 13.9889C25.7885 13.9889 27.095 14.8575 29.1316 15.422C30.5919 15.8239 32.5617 15.9097 32.5617 15.9097V10.1336C31.8722 10.2119 30.4714 9.9861 29.0358 9.24546L29.0372 9.24396Z" fill="black" />
</svg>
    